<svg xmlns="http://www.w3.org/2000/svg" width="480" height="470" viewBox="0 0 480 470">
  <defs>
    <linearGradient id="bg" x1="0%" y1="0%" x2="100%" y2="100%">
      <stop offset="0%" stop-color="#0a0e27"/><stop offset="100%" stop-color="#0d1537"/>
    </linearGradient>
    <linearGradient id="sG" x1="0%" y1="0%" x2="100%" y2="0%">
      <stop offset="0%" stop-color="#00d4ff"/><stop offset="100%" stop-color="#7c3aed"/>
    </linearGradient>
    <filter id="glow"><feGaussianBlur stdDeviation="3" result="b"/><feMerge><feMergeNode in="b"/><feMergeNode in="SourceGraphic"/></feMerge></filter>
    <filter id="pg"><feGaussianBlur stdDeviation="6" result="b"/><feMerge><feMergeNode in="b"/><feMergeNode in="SourceGraphic"/></feMerge></filter>
    <filter id="dg"><feGaussianBlur stdDeviation="4" result="b"/><feMerge><feMergeNode in="b"/><feMergeNode in="SourceGraphic"/></feMerge></filter>
  </defs>
  <style>
    @keyframes drawP { 0% { stroke-dashoffset:800; } 100% { stroke-dashoffset:0; } }
    @keyframes fadeIn { 0% { opacity:0; } 100% { opacity:1; } }
    @keyframes pulse { 0%,100% { opacity:0.6;r:4; } 50% { opacity:1;r:6; } }
    @keyframes fillF { 0% { fill-opacity:0; } 100% { fill-opacity:0.15; } }
    @keyframes borderP { 0%,100% { stroke-opacity:0.15; } 50% { stroke-opacity:0.3; } }
    .grid { stroke:rgba(0,212,255,0.08); stroke-width:1; fill:none; }
    .axis { stroke:rgba(0,212,255,0.12); stroke-width:1; }
    .dpoly { fill:rgba(0,212,255,0.15); stroke:#00d4ff; stroke-width:2; stroke-dasharray:800; animation:drawP 2s ease-out 0.5s both; }
    .dfill { fill:rgba(0,212,255,0.15); stroke:none; animation:fillF 1s ease-out 2s both; fill-opacity:0; }
    .vertex { animation: pulse 2.5s ease-in-out infinite; }
    .lbl { font-family:'Segoe UI',system-ui,sans-serif; font-size:12px; fill:#e0e6f0; animation:fadeIn 0.5s ease-out both; }
    .score { font-family:'SFMono-Regular',Consolas,monospace; font-size:11px; fill:#00d4ff; font-weight:600; animation:fadeIn 0.5s ease-out both; }
    .border { animation: borderP 4s ease-in-out infinite; }
  </style>

  <rect x="1" y="1" width="478" height="468" rx="16" fill="url(#bg)"/>
  <rect x="1" y="1" width="478" height="468" rx="16" fill="none" stroke="#00d4ff" stroke-width="1" class="border"/>

  <text x="240" y="40" text-anchor="middle" font-family="'Segoe UI',system-ui,sans-serif" font-size="18" font-weight="700" letter-spacing="3" fill="url(#sG)" filter="url(#glow)">🧬 DEVELOPER DNA</text>

  <polygon points="240.0,182.5 268.1,198.8 268.1,231.2 240.0,247.5 211.9,231.2 211.9,198.8" class="grid"/>
  <polygon points="240.0,150.0 296.3,182.5 296.3,247.5 240.0,280.0 183.7,247.5 183.7,182.5" class="grid"/>
  <polygon points="240.0,117.5 324.4,166.2 324.4,263.8 240.0,312.5 155.6,263.8 155.6,166.2" class="grid"/>
  <polygon points="240.0,85.0 352.6,150.0 352.6,280.0 240.0,345.0 127.4,280.0 127.4,150.0" class="grid"/>

  <line x1="240" y1="215" x2="240.0" y2="85.0" class="axis"/>
  <line x1="240" y1="215" x2="352.6" y2="150.0" class="axis"/>
  <line x1="240" y1="215" x2="352.6" y2="280.0" class="axis"/>
  <line x1="240" y1="215" x2="240.0" y2="345.0" class="axis"/>
  <line x1="240" y1="215" x2="127.4" y2="280.0" class="axis"/>
  <line x1="240" y1="215" x2="127.4" y2="150.0" class="axis"/>

  <polygon points="240.0,85.0 256.9,205.2 348.1,277.4 240.0,267.0 223.1,224.8 144.3,159.8" class="dfill"/>
  <polygon points="240.0,85.0 256.9,205.2 348.1,277.4 240.0,267.0 223.1,224.8 144.3,159.8" class="dpoly" filter="url(#pg)"/>
  <circle cx="240.0" cy="85.0" r="4" fill="#00d4ff" class="vertex" filter="url(#dg)" style="animation-delay:0.0s"/>
  <circle cx="256.9" cy="205.2" r="4" fill="#00d4ff" class="vertex" filter="url(#dg)" style="animation-delay:0.3s"/>
  <circle cx="348.1" cy="277.4" r="4" fill="#00d4ff" class="vertex" filter="url(#dg)" style="animation-delay:0.6s"/>
  <circle cx="240.0" cy="267.0" r="4" fill="#00d4ff" class="vertex" filter="url(#dg)" style="animation-delay:0.8999999999999999s"/>
  <circle cx="223.1" cy="224.8" r="4" fill="#00d4ff" class="vertex" filter="url(#dg)" style="animation-delay:1.2s"/>
  <circle cx="144.3" cy="159.8" r="4" fill="#00d4ff" class="vertex" filter="url(#dg)" style="animation-delay:1.5s"/>

  <text x="240.0" y="56.4" text-anchor="middle" class="lbl" style="animation-delay:0.5s">Frontend</text>
  <text x="240.0" y="70.4" text-anchor="middle" class="score" style="animation-delay:0.6s">100</text>
  <text x="377.4" y="135.7" text-anchor="start" class="lbl" style="animation-delay:0.6s">Backend</text>
  <text x="377.4" y="149.7" text-anchor="start" class="score" style="animation-delay:0.7s">15</text>
  <text x="377.4" y="294.3" text-anchor="start" class="lbl" style="animation-delay:0.7s">Productivity</text>
  <text x="377.4" y="308.3" text-anchor="start" class="score" style="animation-delay:0.8s">96</text>
  <text x="240.0" y="373.6" text-anchor="middle" class="lbl" style="animation-delay:0.8s">Impact</text>
  <text x="240.0" y="387.6" text-anchor="middle" class="score" style="animation-delay:0.9s">40</text>
  <text x="102.6" y="294.3" text-anchor="end" class="lbl" style="animation-delay:0.9s">Collaboration</text>
  <text x="102.6" y="308.3" text-anchor="end" class="score" style="animation-delay:1.0s">15</text>
  <text x="102.6" y="135.7" text-anchor="end" class="lbl" style="animation-delay:1.0s">Breadth</text>
  <text x="102.6" y="149.7" text-anchor="end" class="score" style="animation-delay:1.1s">85</text>


  <line x1="120" y1="420" x2="360" y2="420" stroke="rgba(0,212,255,0.1)" stroke-width="1"/>
  <text x="240" y="445" text-anchor="middle" font-family="'Segoe UI',system-ui,sans-serif" font-size="11" fill="#8892b0" letter-spacing="2">OVERALL</text>
  <text x="240" y="464" text-anchor="middle" font-family="'SFMono-Regular',Consolas,monospace" font-size="22" font-weight="700" fill="url(#sG)" filter="url(#glow)">58.5 / 100</text>
</svg>